<mxfile host="app.diagrams.net" modified="2024-01-27T10:11:18.766Z" agent="Mozilla/5.0 (Windows NT 10.0; Win64; x64) AppleWebKit/537.36 (KHTML, like Gecko) Chrome/120.0.0.0 Safari/537.36" version="23.0.2" etag="Ih18H-txkTEc1No67aM8" type="github">
  <diagram name="‫עמוד-1‬" id="ItxJU4863OH5qCp5tKTt">
    <mxGraphModel>
      <root>
        <mxCell id="0" />
        <mxCell id="1" parent="0" />
      </root>
    </mxGraphModel>
  </diagram>
</mxfile>
